<svg data-v-fde0c5aa="" xmlns="http://www.w3.org/2000/svg" viewBox="0 0 300 300" class="icon"><!----><defs data-v-fde0c5aa=""><!----></defs><rect data-v-fde0c5aa="" fill="#42babd" x="0" y="0" width="300px" height="300px" class="logo-background-square"></rect><!----><defs data-v-fde0c5aa=""><!----></defs><g data-v-fde0c5aa="" id="3cafee34-3aa4-453b-aa2c-a3b4fbdee57a" fill="#bd4542" stroke="none" transform="matrix(2.7004220485687256,0,0,2.7004220485687256,13.628691983122373,16.962025316455698)"><path d="M81 61.839A2.839 2.839 0 0 0 78.161 59H46.839A2.839 2.839 0 0 0 44 61.839v25.322A2.839 2.839 0 0 0 46.839 90h31.322A2.839 2.839 0 0 0 81 87.161V61.839zM87 38.839A2.839 2.839 0 0 0 84.161 36H46.839A2.839 2.839 0 0 0 44 38.839v12.322A2.839 2.839 0 0 0 46.839 54h37.322A2.839 2.839 0 0 0 87 51.161V38.839zM37 87.161A2.839 2.839 0 0 1 34.161 90H22.839A2.839 2.839 0 0 1 20 87.161V61.839A2.839 2.839 0 0 1 22.839 59h11.322A2.839 2.839 0 0 1 37 61.839v25.322zM37 51.16A2.84 2.84 0 0 1 34.161 54H16.839A2.84 2.84 0 0 1 14 51.16V38.839A2.839 2.839 0 0 1 16.839 36h17.322A2.839 2.839 0 0 1 37 38.839V51.16zM78.221 13.109c-1.655-2.867-5.098-4.578-9.205-4.578-9.352 0-15.979 8.532-19.234 13.918-3.261-5.38-9.886-13.864-19.217-13.864-5.918 0-10.212 3.561-10.212 8.392 0 8.568 9.675 14.158 29.124 14.158 19.449 0 29.754-7.186 29.754-14.087-.002-1.372-.303-2.715-1.01-3.939zm-47.758 8.533c-3.269-1.68-4.433-3.566-4.433-4.772 0-1.542 1.906-2.661 4.534-2.661 6.33 0 11.339 6.29 14.061 10.669-7.292-.467-11.668-1.953-14.162-3.236zm42.648-3.337c-1.647 2.851-7.258 5.873-18.128 6.572 2.744-4.378 7.776-10.667 14.032-10.667 2.421 0 3.802.898 4.288 1.739.387.67.322 1.463-.192 2.356z"></path></g><!----></svg>